HIERARCHY
ROOT Hips
{
  OFFSET -290.028 90.275 1548.12
  CHANNELS 6 Xposition Yposition Zposition Zrotation Xrotation Yrotation
  JOINT Spine
  {
    OFFSET 0 8 0
    CHANNELS 6 Xposition Yposition Zposition Zrotation Xrotation Yrotation
    JOINT Spine1
    {
      OFFSET 0 8 0
      CHANNELS 6 Xposition Yposition Zposition Zrotation Xrotation Yrotation
      JOINT Spine2
      {
        OFFSET 0 8 0
        CHANNELS 6 Xposition Yposition Zposition Zrotation Xrotation Yrotation
        JOINT Spine3
        {
          OFFSET 0 8 0
          CHANNELS 6 Xposition Yposition Zposition Zrotation Xrotation Yrotation
          JOINT Neck
          {
            OFFSET 0 17 0
            CHANNELS 6 Xposition Yposition Zposition Zrotation Xrotation Yrotation
            JOINT Head
            {
              OFFSET 0 10.8 0
              CHANNELS 6 Xposition Yposition Zposition Zrotation Xrotation Yrotation
              End Site
              {
                OFFSET 0 20.25 0
              }
            }
          }
          JOINT LeftShoulder
          {
            OFFSET 5 17 0
            CHANNELS 6 Xposition Yposition Zposition Zrotation Xrotation Yrotation
            JOINT LeftShoulder2
            {
              OFFSET 6.45 0 0
              CHANNELS 6 Xposition Yposition Zposition Zrotation Xrotation Yrotation
              JOINT LeftArm
              {
                OFFSET 6.45 0 0
                CHANNELS 6 Xposition Yposition Zposition Zrotation Xrotation Yrotation
                JOINT LeftForeArm
                {
                  OFFSET 0 -32.4 -2
                  CHANNELS 6 Xposition Yposition Zposition Zrotation Xrotation Yrotation
                  JOINT LeftHand
                  {
                    OFFSET 0 -25.65 2
                    CHANNELS 6 Xposition Yposition Zposition Zrotation Xrotation Yrotation
                    JOINT LeftHandThumb1
                    {
                      OFFSET -0.5 -1.5 2.65
                      CHANNELS 6 Xposition Yposition Zposition Zrotation Xrotation Yrotation
                      JOINT LeftHandThumb2
                      {
                        OFFSET 0 -3.8 3.7
                        CHANNELS 6 Xposition Yposition Zposition Zrotation Xrotation Yrotation
                        JOINT LeftHandThumb3
                        {
                          OFFSET 0 -3 2.7
                          CHANNELS 6 Xposition Yposition Zposition Zrotation Xrotation Yrotation
                          End Site
                          {
                            OFFSET 0 -2.3 1.8
                          }
                        }
                      }
                    }
                    JOINT LeftHandIndex
                    {
                      OFFSET 0 -1.9 1.6
                      CHANNELS 6 Xposition Yposition Zposition Zrotation Xrotation Yrotation
                      JOINT LeftHandIndex1
                      {
                        OFFSET 0 -8.3 1.9
                        CHANNELS 6 Xposition Yposition Zposition Zrotation Xrotation Yrotation
                        JOINT LeftHandIndex2
                        {
                          OFFSET 0 -4.5 0
                          CHANNELS 6 Xposition Yposition Zposition Zrotation Xrotation Yrotation
                          JOINT LeftHandIndex3
                          {
                            OFFSET 0 -3.4 0
                            CHANNELS 6 Xposition Yposition Zposition Zrotation Xrotation Yrotation
                            End Site
                            {
                              OFFSET 0 -2.6 0
                            }
                          }
                        }
                      }
                    }
                    JOINT LeftHandMiddle
                    {
                      OFFSET -0.25 -2.2 0.4
                      CHANNELS 6 Xposition Yposition Zposition Zrotation Xrotation Yrotation
                      JOINT LeftHandMiddle1
                      {
                        OFFSET 0 -8.3 1
                        CHANNELS 6 Xposition Yposition Zposition Zrotation Xrotation Yrotation
                        JOINT LeftHandMiddle2
                        {
                          OFFSET 0 -4.65 0
                          CHANNELS 6 Xposition Yposition Zposition Zrotation Xrotation Yrotation
                          JOINT LeftHandMiddle3
                          {
                            OFFSET 0 -3.3 0
                            CHANNELS 6 Xposition Yposition Zposition Zrotation Xrotation Yrotation
                            End Site
                            {
                              OFFSET 0 -2.7 0
                            }
                          }
                        }
                      }
                    }
                    JOINT LeftHandRing
                    {
                      OFFSET -0.5 -2.15 -0.8
                      CHANNELS 6 Xposition Yposition Zposition Zrotation Xrotation Yrotation
                      JOINT LeftHandRing1
                      {
                        OFFSET 0 -7.75 -0.2
                        CHANNELS 6 Xposition Yposition Zposition Zrotation Xrotation Yrotation
                        JOINT LeftHandRing2
                        {
                          OFFSET 0 -3.8 0
                          CHANNELS 6 Xposition Yposition Zposition Zrotation Xrotation Yrotation
                          JOINT LeftHandRing3
                          {
                            OFFSET 0 -3.4 0
                            CHANNELS 6 Xposition Yposition Zposition Zrotation Xrotation Yrotation
                            End Site
                            {
                              OFFSET 0 -2.6 0
                            }
                          }
                        }
                      }
                    }
                    JOINT LeftHandPinky
                    {
                      OFFSET -0.75 -1.75 -1.85
                      CHANNELS 6 Xposition Yposition Zposition Zrotation Xrotation Yrotation
                      JOINT LeftHandPinky1
                      {
                        OFFSET 0 -7.15 -1
                        CHANNELS 6 Xposition Yposition Zposition Zrotation Xrotation Yrotation
                        JOINT LeftHandPinky2
                        {
                          OFFSET 0 -3 0
                          CHANNELS 6 Xposition Yposition Zposition Zrotation Xrotation Yrotation
                          JOINT LeftHandPinky3
                          {
                            OFFSET 0 -2.35 0
                            CHANNELS 6 Xposition Yposition Zposition Zrotation Xrotation Yrotation
                            End Site
                            {
                              OFFSET 0 -2.1 0
                            }
                          }
                        }
                      }
                    }
                  }
                }
              }
            }
          }
          JOINT RightShoulder
          {
            OFFSET -5 17 0
            CHANNELS 6 Xposition Yposition Zposition Zrotation Xrotation Yrotation
            JOINT RightShoulder2
            {
              OFFSET -6.45 0 0
              CHANNELS 6 Xposition Yposition Zposition Zrotation Xrotation Yrotation
              JOINT RightArm
              {
                OFFSET -6.45 0 0
                CHANNELS 6 Xposition Yposition Zposition Zrotation Xrotation Yrotation
                JOINT RightForeArm
                {
                  OFFSET 0 -32.4 -2
                  CHANNELS 6 Xposition Yposition Zposition Zrotation Xrotation Yrotation
                  JOINT RightHand
                  {
                    OFFSET 0 -25.65 2
                    CHANNELS 6 Xposition Yposition Zposition Zrotation Xrotation Yrotation
                    JOINT RightHandThumb1
                    {
                      OFFSET 0.5 -1.5 2.65
                      CHANNELS 6 Xposition Yposition Zposition Zrotation Xrotation Yrotation
                      JOINT RightHandThumb2
                      {
                        OFFSET 0 -3.8 3.7
                        CHANNELS 6 Xposition Yposition Zposition Zrotation Xrotation Yrotation
                        JOINT RightHandThumb3
                        {
                          OFFSET 0 -3 2.7
                          CHANNELS 6 Xposition Yposition Zposition Zrotation Xrotation Yrotation
                          End Site
                          {
                            OFFSET 0 -2.3 1.8
                          }
                        }
                      }
                    }
                    JOINT RightHandIndex
                    {
                      OFFSET 0 -1.9 1.6
                      CHANNELS 6 Xposition Yposition Zposition Zrotation Xrotation Yrotation
                      JOINT RightHandIndex1
                      {
                        OFFSET 0 -8.3 1.9
                        CHANNELS 6 Xposition Yposition Zposition Zrotation Xrotation Yrotation
                        JOINT RightHandIndex2
                        {
                          OFFSET 0 -4.5 0
                          CHANNELS 6 Xposition Yposition Zposition Zrotation Xrotation Yrotation
                          JOINT RightHandIndex3
                          {
                            OFFSET 0 -3.4 0
                            CHANNELS 6 Xposition Yposition Zposition Zrotation Xrotation Yrotation
                            End Site
                            {
                              OFFSET 0 -2.6 0
                            }
                          }
                        }
                      }
                    }
                    JOINT RightHandMiddle
                    {
                      OFFSET 0.25 -2.2 0.4
                      CHANNELS 6 Xposition Yposition Zposition Zrotation Xrotation Yrotation
                      JOINT RightHandMiddle1
                      {
                        OFFSET 0 -8.3 1
                        CHANNELS 6 Xposition Yposition Zposition Zrotation Xrotation Yrotation
                        JOINT RightHandMiddle2
                        {
                          OFFSET 0 -4.65 0
                          CHANNELS 6 Xposition Yposition Zposition Zrotation Xrotation Yrotation
                          JOINT RightHandMiddle3
                          {
                            OFFSET 0 -3.3 0
                            CHANNELS 6 Xposition Yposition Zposition Zrotation Xrotation Yrotation
                            End Site
                            {
                              OFFSET 0 -2.7 0
                            }
                          }
                        }
                      }
                    }
                    JOINT RightHandRing
                    {
                      OFFSET 0.5 -2.15 -0.8
                      CHANNELS 6 Xposition Yposition Zposition Zrotation Xrotation Yrotation
                      JOINT RightHandRing1
                      {
                        OFFSET 0 -7.75 -0.2
                        CHANNELS 6 Xposition Yposition Zposition Zrotation Xrotation Yrotation
                        JOINT RightHandRing2
                        {
                          OFFSET 0 -3.8 0
                          CHANNELS 6 Xposition Yposition Zposition Zrotation Xrotation Yrotation
                          JOINT RightHandRing3
                          {
                            OFFSET 0 -3.4 0
                            CHANNELS 6 Xposition Yposition Zposition Zrotation Xrotation Yrotation
                            End Site
                            {
                              OFFSET 0 -2.6 0
                            }
                          }
                        }
                      }
                    }
                    JOINT RightHandPinky
                    {
                      OFFSET 0.75 -1.75 -1.85
                      CHANNELS 6 Xposition Yposition Zposition Zrotation Xrotation Yrotation
                      JOINT RightHandPinky1
                      {
                        OFFSET 0 -7.15 -1
                        CHANNELS 6 Xposition Yposition Zposition Zrotation Xrotation Yrotation
                        JOINT RightHandPinky2
                        {
                          OFFSET 0 -3 0
                          CHANNELS 6 Xposition Yposition Zposition Zrotation Xrotation Yrotation
                          JOINT RightHandPinky3
                          {
                            OFFSET 0 -2.35 0
                            CHANNELS 6 Xposition Yposition Zposition Zrotation Xrotation Yrotation
                            End Site
                            {
                              OFFSET 0 -2.1 0
                            }
                          }
                        }
                      }
                    }
                  }
                }
              }
            }
          }
        }
      }
    }
  }
  JOINT LeftUpLeg
  {
    OFFSET 8 0 0
    CHANNELS 6 Xposition Yposition Zposition Zrotation Xrotation Yrotation
    JOINT LeftLeg
    {
      OFFSET 0 -45 -1
      CHANNELS 6 Xposition Yposition Zposition Zrotation Xrotation Yrotation
      JOINT LeftFoot
      {
        OFFSET 0 -41 -2
        CHANNELS 6 Xposition Yposition Zposition Zrotation Xrotation Yrotation
        JOINT LeftToeBase
        {
          OFFSET 0 -7.5 12.5
          CHANNELS 6 Xposition Yposition Zposition Zrotation Xrotation Yrotation
          JOINT LeftFootToe
          {
            OFFSET 0 0 4
            CHANNELS 6 Xposition Yposition Zposition Zrotation Xrotation Yrotation
            End Site
            {
              OFFSET 0 0 0
            }
          }
        }
      }
    }
  }
  JOINT RightUpLeg
  {
    OFFSET -8 0 0
    CHANNELS 6 Xposition Yposition Zposition Zrotation Xrotation Yrotation
    JOINT RightLeg
    {
      OFFSET 0 -45 -1
      CHANNELS 6 Xposition Yposition Zposition Zrotation Xrotation Yrotation
      JOINT RightFoot
      {
        OFFSET 0 -41 -2
        CHANNELS 6 Xposition Yposition Zposition Zrotation Xrotation Yrotation
        JOINT RightToeBase
        {
          OFFSET 0 -7.5 12.5
          CHANNELS 6 Xposition Yposition Zposition Zrotation Xrotation Yrotation
          JOINT RightFootToe
          {
            OFFSET 0 0 4
            CHANNELS 6 Xposition Yposition Zposition Zrotation Xrotation Yrotation
            End Site
            {
              OFFSET 0 0 0
            }
          }
        }
      }
    }
  }
}
MOTION
Frames:	3
Frame Time:	0.0111111
-288.199 92.7686 1553.91 -2.45973 3.32838 126.505 2.27374e-13 8 0 -3.1603 5.76915 1.53237 -2.27374e-13 8 0 0.612831 2.20429 1.90234 -1.13687e-13 8 0 0.31561 1.09979 0.951535 2.27374e-13 8 -2.27374e-13 0.315504 1.09942 0.951216 -1.13687e-13 17 2.27374e-13 1.92906 9.74774 -2.40212 -1.13687e-13 10.8 2.27374e-13 2.12462 13.4374 -5.58172 5 17 0 -1.48466 1.5605 -2.49157 6.45 0 2.27374e-13 1.20833 -0.130573 2.98808 6.45 4.26326e-14 0 -0.968823 10.5262 30.1828 0 -32.4 -2 -53.5998 -43.8995 -109.08 0 -25.65 2 10.2945 -4.28085 -25.2011 -0.5 -1.5 2.65 -28.2838 -57.3822 124.072 1.06581e-14 -3.8 3.7 0.000878786 37.5351 0.011717 0 -3 2.7 -0.0156635 48.121 -0.0406883 0 -1.9 1.6 3.18055e-15 3.18055e-15 6.36111e-15 -1.13687e-13 -8.3 1.9 -37.6184 19.4321 7.54078 0 -4.5 0 -65.1058 0.0025097 -0.0215891 1.13687e-13 -3.4 1.13687e-13 -46.7898 0.0226451 -0.0020167 -0.25 -2.2 0.4 3.18055e-15 3.18055e-15 6.36111e-15 0 -8.3 1 -49.7645 17.4645 10.3593 0 -4.65 -2.27374e-13 -72.3077 0.00093981 -0.000300696 0 -3.3 0 -90.0002 1.90833e-14 -0 -0.5 -2.15 -0.8 3.18055e-15 3.18055e-15 6.36111e-15 2.27374e-13 -7.75 -0.2 -82.0824 -0.64454 11.5474 0 -3.8 0 -19.4388 -0.0119075 -0 -1.13687e-13 -3.4 1.13687e-13 -90.0002 -0.00115967 -2.22639e-14 -0.75 -1.75 -1.85 3.18055e-15 3.18055e-15 6.36111e-15 -2.27374e-13 -7.15 -1 -71.0981 6.05717 10.9993 2.27374e-13 -3 0 -57.8573 0.00471397 -0.000756585 0 -2.35 0 -90.0002 2.94201e-14 -6.36111e-15 -5 17 0 7.81151 1.12631 -3.80092 -6.45 1.42109e-14 0 -1.63616 0.63151 -0.559107 -6.45 -1.42109e-14 2.27374e-13 -21.032 10.8632 -0.870269 -2.27374e-13 -32.4 -2 92.7196 -48.6866 89.2493 5.68434e-14 -25.65 2 -47.0553 10.019 14.9058 0.5 -1.5 2.65 14.5781 24.7308 11.1326 0 -3.8 3.7 2.61916 -20.1892 -0.536441 1.13687e-13 -3 2.7 0.373637 47.4166 -0.316643 -3.41061e-13 -1.9 1.6 -4.77083e-15 4.77083e-15 3.18055e-15 0 -8.3 1.9 25.3877 10.7251 -2.55567 0 -4.5 0 11.2315 -0.0809301 -0.038703 5.68434e-14 -3.4 -2.27374e-13 9.68523 -0.0656319 -0.0185114 0.25 -2.2 0.4 -4.77083e-15 4.77083e-15 3.18055e-15 0 -8.3 1 47.8461 5.56955 -4.32802 5.68434e-14 -4.65 0 3.79987 -0.120948 -0.0262875 0 -3.3 2.27374e-13 3.4535 -0.108211 -0.00706264 0.5 -2.15 -0.8 -4.77083e-15 4.77083e-15 3.18055e-15 -3.41061e-13 -7.75 -0.2 46.9209 1.93953 -3.68497 -1.7053e-13 -3.8 0 44.0492 0.0322433 -0.0285584 0 -3.4 0 30.6041 0.0153056 -0.030124 0.75 -1.75 -1.85 -4.77083e-15 4.77083e-15 3.18055e-15 0 -7.15 -1 77.0871 -6.72317 -3.58036 0 -3 0 13.5963 0.00677493 -0.0032061 -1.13687e-13 -2.35 1.13687e-13 11.4984 0.00434761 -0.0110233 8 2.84217e-14 0 -8.99997 -1.91209 -35.8141 0 -45 -1 0.000393615 4.21573 0.0772188 2.27374e-13 -41 -2 2.82351 0.176719 21.487 0 -7.5 12.5 1.94126e-19 -9.93923e-17 -3.18055e-15 -2.27374e-13 -3.46945e-18 4 -1.0999 -6.59049 68.8756 -8 0 2.27374e-13 -15.8211 -21.5949 -9.07359 -4.54747e-13 -45 -1 0.400122 22.2084 -2.758 0 -41 -2 0.979 -4.65049 0.871498 2.27374e-13 -7.5 12.5 2.06258e-19 -0.00185781 6.36111e-15 0 -1.42109e-14 4 8.68088 3.31798 54.9462 
-288.246 92.7085 1553.94 -2.7043 3.65003 126.589 0 8 -2.27374e-13 -3.59632 5.7014 1.53395 2.27374e-13 8 0 0.597154 2.14967 1.89745 -2.27374e-13 8 -4.54747e-13 0.307473 1.07254 0.951526 4.54747e-13 8 0 0.307374 1.07218 0.951207 -2.27374e-13 17 0 1.94126 9.76625 -2.397 0 10.8 0 2.10628 13.2516 -5.55875 5 17 0 -1.48466 1.5605 -2.49157 6.45 0 0 1.20832 -0.130573 2.98682 6.45 -1.42109e-14 2.27374e-13 -0.968823 10.5262 30.1828 5.68434e-14 -32.4 -2 -53.5315 -43.7056 -109.577 0 -25.65 2 12.2913 -5.08204 -25.221 -0.5 -1.5 2.65 -28.1446 -57.0441 124.293 7.10543e-15 -3.8 3.7 0.000751164 38.0267 0.0117952 -3.55271e-15 -3 2.7 -0.020161 47.7004 -0.0542242 0 -1.9 1.6 -6.36111e-15 3.18055e-15 9.54166e-15 -1.13687e-13 -8.3 1.9 -36.7691 19.1494 7.26222 0 -4.5 0 -65.2901 0.0025097 -0.0215891 2.27374e-13 -3.4 2.27374e-13 -46.974 0.0261427 -0.0020167 -0.25 -2.2 0.4 -6.36111e-15 3.18055e-15 9.54166e-15 0 -8.3 1 -49.4163 17.3947 10.2536 0 -4.65 0 -72.3657 0.00093981 -0.000300696 0 -3.3 -2.27374e-13 -90.0002 -3.18055e-15 1.27222e-14 -0.5 -2.15 -0.8 -6.36111e-15 3.18055e-15 9.54166e-15 3.41061e-13 -7.75 -0.2 -81.9135 -0.685076 11.5046 -2.27374e-13 -3.8 0 -19.2217 -0.0188054 6.36111e-15 0 -3.4 0 -90.0002 -0.00115967 -3.81667e-14 -0.75 -1.75 -1.85 -6.36111e-15 3.18055e-15 9.54166e-15 -2.27374e-13 -7.15 -1 -71.0455 6.04233 10.9795 0 -3 0 -57.7908 0.00471397 -0.000756585 0 -2.35 1.13687e-13 -90.0002 1.51076e-14 -2.22639e-14 -5 17 0 7.83855 1.25292 -3.73182 -6.45 1.42109e-14 0 -1.63607 0.631509 -0.567867 -6.45 -1.42109e-14 2.27374e-13 -20.7115 11.5603 -2.04117 -2.27374e-13 -32.4 -2 90.5805 -48.6181 87.7332 -1.13687e-13 -25.65 2 -46.7057 10.0212 13.6965 0.5 -1.5 2.65 14.3086 24.8276 11.3904 5.68434e-14 -3.8 3.7 2.63567 -20.0782 -0.536061 1.7053e-13 -3 2.7 0.372642 47.2945 -0.315911 -3.41061e-13 -1.9 1.6 -4.77083e-15 3.18055e-15 1.27222e-14 0 -8.3 1.9 23.9221 10.4385 -2.34839 0 -4.5 0 11.9893 -0.0608627 -0.030092 0 -3.4 -2.27374e-13 10.284 -0.0491141 -0.0143124 0.25 -2.2 0.4 -4.77083e-15 3.18055e-15 1.27222e-14 -1.13687e-13 -8.3 1 46.5838 5.40789 -4.13674 -5.68434e-14 -4.65 -2.27374e-13 5.3507 -0.153257 -0.0262876 5.68434e-14 -3.3 2.27374e-13 4.78231 -0.133737 -0.00706265 0.5 -2.15 -0.8 -4.77083e-15 3.18055e-15 1.27222e-14 -1.13687e-13 -7.75 -0.2 46.3892 1.62896 -3.54852 -1.13687e-13 -3.8 1.13687e-13 43.9555 0.0449601 -0.0285584 -1.13687e-13 -3.4 1.13687e-13 30.5456 0.0153056 -0.030124 0.75 -1.75 -1.85 -4.77083e-15 3.18055e-15 1.27222e-14 1.13687e-13 -7.15 -1 76.6364 -6.86829 -3.37326 0 -3 -1.13687e-13 13.403 0.00901708 -0.00476079 0 -2.35 0 11.358 0.00575121 -0.0110233 8 5.68434e-14 -2.27374e-13 -9.44568 -2.00761 -35.8923 2.27374e-13 -45 -1 2.67458e-11 4.36442 0.0421339 -2.27374e-13 -41 -2 2.79605 0.136108 21.3953 2.27374e-13 -7.5 12.5 9.70628e-20 -9.94045e-17 -0 2.27374e-13 -1.30104e-18 4 -1.04932 -6.65297 68.8862 -8 0 0 -16.2254 -21.5548 -9.07353 -2.27374e-13 -45 -1 0.398189 22.0798 -2.7681 0 -41 -2 1.16312 -4.45168 1.00962 -2.27374e-13 -7.5 12.5 -1.98764e-15 -0.00185781 6.36111e-15 0 -1.42109e-14 4 8.54085 3.29754 54.9781 
-288.287 92.6428 1553.97 -2.93411 3.94809 126.679 0 8 -2.27374e-13 -4.01321 5.6384 1.52922 2.27374e-13 8 0 0.584209 2.09975 1.8873 0 8 -2.27374e-13 0.300745 1.04763 0.946324 3.41061e-13 8 0 0.300653 1.0473 0.946019 -1.13687e-13 17 2.27374e-13 1.94799 9.77125 -2.39205 1.13687e-13 10.8 0 2.08927 13.05 -5.53684 5 17 2.27374e-13 -1.48466 1.5605 -2.49157 6.45 0 0 1.20829 -0.130508 2.97507 6.45 0 2.27374e-13 -0.968823 10.5262 30.1828 -5.68434e-14 -32.4 -2 -53.4993 -43.4849 -110.102 0 -25.65 2 14.3072 -5.91986 -25.3237 -0.5 -1.5 2.65 -28.0574 -56.6988 124.498 -1.42109e-14 -3.8 3.7 0.000629709 38.4885 0.0118704 1.42109e-14 -3 2.7 -0.0226071 47.1699 -0.0544194 0 -1.9 1.6 -6.36111e-15 -6.36111e-15 3.18055e-15 0 -8.3 1.9 -35.9822 18.9227 7.03586 0 -4.5 0 -65.5063 0.0025097 -0.0222074 0 -3.4 3.41061e-13 -47.1876 0.0252905 -0.0020167 -0.25 -2.2 0.4 -6.36111e-15 -6.36111e-15 3.18055e-15 0 -8.3 1 -49.0119 17.3373 10.1485 4.54747e-13 -4.65 0 -72.6668 0.00093981 -0.000300696 0 -3.3 -2.27374e-13 -90.0002 0 -9.54166e-15 -0.5 -2.15 -0.8 -6.36111e-15 -6.36111e-15 3.18055e-15 1.13687e-13 -7.75 -0.2 -81.6798 -0.727357 11.4543 -2.27374e-13 -3.8 1.13687e-13 -19.0268 -0.022945 9.54166e-15 0 -3.4 0 -90.0002 -0.00115967 -2.22639e-14 -0.75 -1.75 -1.85 -6.36111e-15 -6.36111e-15 3.18055e-15 -1.13687e-13 -7.15 -1 -70.8739 6.08227 10.9661 0 -3 0 -57.9767 0.00471397 -0.000756585 -5.68434e-14 -2.35 0 -90.0002 3.89618e-14 -1.90833e-14 -5 17 0 7.8635 1.37127 -3.67246 -6.45 0 0 -1.63224 0.631509 -0.568612 -6.45 2.84217e-14 4.54747e-13 -20.4159 12.1978 -3.19761 0 -32.4 -2 88.5939 -48.4685 86.4115 0 -25.65 2 -46.1155 10.2742 12.2648 0.5 -1.5 2.65 14.0211 24.6319 11.6299 0 -3.8 3.7 2.65186 -19.9382 -0.535584 1.13687e-13 -3 2.7 0.371412 47.1427 -0.315008 -2.27374e-13 -1.9 1.6 6.36111e-15 1.59028e-15 1.27222e-14 0 -8.3 1.9 22.7325 10.3758 -2.22196 0 -4.5 2.27374e-13 12.5078 -0.0355704 -0.0165108 5.68434e-14 -3.4 0 10.6859 -0.0283625 -0.00744368 0.25 -2.2 0.4 6.36111e-15 1.59028e-15 1.27222e-14 0 -8.3 1 45.652 5.29669 -4.02208 -5.68434e-14 -4.65 0 7.11846 -0.17171 -0.0262876 0 -3.3 2.27374e-13 6.26907 -0.145597 -0.00706265 0.5 -2.15 -0.8 6.36111e-15 1.59028e-15 1.27222e-14 -1.13687e-13 -7.75 -0.2 46.5601 1.32109 -3.49495 -1.13687e-13 -3.8 0 43.4767 0.0346564 -0.0235008 0 -3.4 2.27374e-13 30.241 0.011357 -0.0239404 0.75 -1.75 -1.85 6.36111e-15 1.59028e-15 1.27222e-14 0 -7.15 -1 76.2097 -6.93769 -3.22162 0 -3 1.13687e-13 13.0423 0.0277755 -0.0127342 -2.27374e-13 -2.35 0 11.0879 0.0184022 -0.011255 8 5.68434e-14 0 -9.92874 -2.18637 -35.99 0 -45 -1 0.000182341 4.74123 0.00874165 0 -41 -2 2.76953 -0.0267823 21.3135 2.27374e-13 -7.5 12.5 5.52277e-33 -9.94894e-17 3.18055e-15 2.27374e-13 -1.73472e-18 4 -0.999579 -6.70868 68.9068 -8 0 2.27374e-13 -16.607 -21.5166 -9.07383 -4.54747e-13 -45 -1 0.394567 21.9629 -2.77241 0 -41 -2 1.35858 -4.25949 1.25982 0 -7.5 12.5 -2.78299e-15 -0.00185781 -0 0 -1.42109e-14 4 8.38304 3.25128 54.955 
